<mxfile host="app.diagrams.net" modified="2023-04-22T15:20:51.984Z" agent="Mozilla/5.0 (Windows NT 10.0; Win64; x64) AppleWebKit/537.36 (KHTML, like Gecko) Chrome/112.0.0.0 Safari/537.36" version="21.2.1" etag="BzMqxE1YyerUJ9GWNicU" type="github">
  <diagram name="Страница 1" id="QRClOGAq1-jbmVAgJQUM">
    <mxGraphModel>
      <root>
        <mxCell id="0" />
        <mxCell id="1" parent="0" />
      </root>
    </mxGraphModel>
  </diagram>
</mxfile>
